<?xml version="1.0" encoding="UTF-8"?>
<!-- Generated by Pixelmator Pro 2.4.2 -->
<svg width="80" height="80" viewBox="0 0 80 80" xmlns="http://www.w3.org/2000/svg" xmlns:xlink="http://www.w3.org/1999/xlink">
    <linearGradient id="linearGradient1" x1="44.74545" y1="49.842627" x2="-6.542176" y2="-6.787879" gradientUnits="userSpaceOnUse">
        <stop offset="1e-05" stop-color="#001e00" stop-opacity="1"/>
        <stop offset="1" stop-color="#00b900" stop-opacity="1"/>
    </linearGradient>
    <path id="Path-copy" fill="url(#linearGradient1)" stroke="none" d="M 24 0 L 56 0 C 69.254837 0 80 10.745163 80 24 L 80 56 C 80 69.254837 69.254837 80 56 80 L 24 80 C 10.745166 80 0 69.254837 0 56 L 0 24 C 0 10.745163 10.745166 0 24 0 Z"/>
    <path id="path1" fill="#beecb0" stroke="none" d="M 19.6805 29.8745 C 19.678801 29.733299 19.710899 29.5937 19.774099 29.467499 C 19.8374 29.341202 19.930099 29.232002 20.0443 29.148899 C 20.158501 29.0658 20.291 29.011398 20.430599 28.989998 C 20.5702 28.9687 20.7129 28.981201 20.846701 29.026398 L 36.748901 34.327099 C 36.923 34.385899 37.074402 34.497501 37.181999 34.646301 C 37.2897 34.7952 37.348301 34.9739 37.349701 35.1576 L 37.349701 59.028599 C 37.348598 59.168301 37.314499 59.305801 37.25 59.429798 C 37.185501 59.553699 37.092499 59.660599 36.978699 59.741699 C 36.864899 59.822701 36.733501 59.875599 36.5952 59.896 C 36.457001 59.916401 36.315899 59.903801 36.183498 59.859001 L 20.3873 54.363899 C 20.213301 54.305199 20.061899 54.1936 19.954201 54.044701 C 19.8465 53.895901 19.787901 53.717201 19.7866 53.533501 L 19.6805 29.8745 Z M 42.650398 59.116901 C 42.650501 59.258801 42.6847 59.398499 42.750099 59.5243 C 42.815601 59.650101 42.9104 59.7584 43.026501 59.839802 C 43.142601 59.921299 43.2766 59.973598 43.417198 59.992298 C 43.5578 60.011002 43.700802 59.995602 43.834202 59.947399 L 59.736401 54.381599 C 59.9072 54.319901 60.054798 54.207001 60.1591 54.058399 C 60.263401 53.909801 60.3195 53.7327 60.3195 53.551201 L 60.3195 30.0159 C 60.3204 29.876701 60.2883 29.7393 60.226002 29.614899 C 60.1637 29.490501 60.072899 29.3825 59.960899 29.299801 C 59.848999 29.217201 59.719101 29.162102 59.581799 29.139198 C 59.4445 29.116199 59.303799 29.125999 59.171001 29.167801 L 43.268799 34.2211 C 43.0886 34.277802 42.931301 34.390701 42.82 34.5434 C 42.708698 34.695999 42.6493 34.880299 42.650398 35.069199 L 42.650398 59.116901 Z"/>
    <path id="path2" fill="#beecb0" stroke="none" d="M 39.735001 30.3162 C 39.890999 30.360001 40.056099 30.360001 40.212101 30.3162 L 55.548901 26.111 C 55.783199 26.111 56.0079 26.017899 56.173599 25.8522 C 56.339199 25.6866 56.432301 25.4618 56.432301 25.227501 C 56.432301 24.993202 56.339199 24.768501 56.173599 24.602798 C 56.0079 24.437202 55.783199 24.344101 55.548901 24.344101 L 40.212101 20.032799 C 40.056099 19.989098 39.890999 19.989098 39.735001 20.032799 L 24.610201 24.096703 C 24.3759 24.096703 24.151199 24.1898 23.9855 24.355499 C 23.819901 24.521099 23.726801 24.745899 23.726801 24.980202 C 23.726801 25.2145 23.819901 25.439201 23.9855 25.6049 C 24.151199 25.7705 24.3759 25.863602 24.610201 25.863602 L 39.735001 30.3162 Z"/>
</svg>
