<?xml version="1.0" encoding="UTF-8"?>
<!-- Generated by Pixelmator Pro 2.4.2 -->
<svg width="80" height="80" viewBox="0 0 80 80" xmlns="http://www.w3.org/2000/svg" xmlns:xlink="http://www.w3.org/1999/xlink">
    <linearGradient id="linearGradient1" x1="44.74545" y1="49.842627" x2="-6.542176" y2="-6.787879" gradientUnits="userSpaceOnUse">
        <stop offset="1e-05" stop-color="#001e00" stop-opacity="1"/>
        <stop offset="1" stop-color="#85a044" stop-opacity="1"/>
    </linearGradient>
    <path id="Path" fill="url(#linearGradient1)" stroke="none" d="M 24 0 L 56 0 C 69.254837 0 80 10.745163 80 24 L 80 56 C 80 69.254837 69.254837 80 56 80 L 24 80 C 10.745166 80 0 69.254837 0 56 L 0 24 C 0 10.745163 10.745166 0 24 0 Z"/>
    <path id="path1" fill="#00f500" stroke="none" d="M 60 32.084202 C 60 31.642097 59.824402 31.218201 59.511799 30.905701 C 59.199299 30.593102 58.775299 30.4175 58.333302 30.4175 L 53.75 30.4175 C 53.639801 30.4175 53.534 30.461201 53.455898 30.538902 C 53.3778 30.616699 53.333801 30.722298 53.333302 30.8325 L 53.333302 47.915798 C 53.333302 48.7999 52.982101 49.647701 52.356998 50.2729 C 51.731899 50.897999 50.883999 51.249199 50 51.249199 L 48.75 51.249199 C 48.6395 51.249199 48.533501 51.293098 48.455399 51.371201 C 48.377201 51.449299 48.333302 51.555302 48.333302 51.665798 L 48.333302 52.915798 C 48.333302 53.357899 48.5089 53.781799 48.821499 54.094299 C 49.133999 54.406898 49.557999 54.5825 50 54.5825 L 58.333302 54.5825 C 58.775299 54.5825 59.199299 54.406898 59.511799 54.094299 C 59.824402 53.781799 60 53.357899 60 52.915798 L 60 32.084202 Z"/>
    <path id="path2" fill="#00f500" stroke="none" d="M 40 51.250801 L 37.916698 51.250801 C 37.806198 51.250801 37.700199 51.206902 37.622002 51.128799 C 37.5439 51.050598 37.5 50.944698 37.5 50.834202 L 37.5 49.999199 C 37.5 49.888699 37.5439 49.7827 37.622002 49.704498 C 37.700199 49.6264 37.806198 49.5825 37.916698 49.5825 L 48.333302 49.5825 C 49.2174 49.5825 50.065201 49.2313 50.690399 48.606201 C 51.315498 47.981098 51.666698 47.133202 51.666698 46.249199 L 51.666698 28.750801 C 51.666698 27.866798 51.315498 27.018898 50.690399 26.393799 C 50.065201 25.7687 49.2174 25.4175 48.333302 25.4175 L 23.3333 25.4175 C 22.449301 25.4175 21.6014 25.7687 20.976299 26.393799 C 20.3512 27.018898 20 27.866798 20 28.750801 L 20 46.250801 C 20 47.134899 20.3512 47.9827 20.976299 48.607899 C 21.6014 49.233002 22.449301 49.584202 23.3333 49.584202 L 33.75 49.584202 C 33.860199 49.584202 33.9659 49.6278 34.043999 49.705601 C 34.122101 49.783401 34.166199 49.888901 34.166698 49.999199 L 34.166698 50.8325 C 34.166698 50.943001 34.122799 51.049 34.044601 51.127102 C 33.966499 51.205299 33.8605 51.249199 33.75 51.249199 L 31.6667 51.249199 C 31.2246 51.249199 30.800699 51.424801 30.488199 51.737301 C 30.1756 52.0499 30 52.473801 30 52.915798 C 30 53.357899 30.1756 53.781799 30.488199 54.094299 C 30.800699 54.406898 31.2246 54.5825 31.6667 54.5825 L 40 54.5825 C 40.442001 54.5825 40.865898 54.406898 41.178501 54.094299 C 41.4911 53.781799 41.666698 53.357899 41.666698 52.915798 C 41.666698 52.473801 41.4911 52.0499 41.178501 51.737301 C 40.865898 51.424801 40.442001 51.249199 40 51.249199 L 40 51.250801 Z M 23.3333 45.4175 L 23.3333 29.584198 C 23.3333 29.363098 23.421101 29.151199 23.5774 28.9949 C 23.7337 28.8386 23.9457 28.750801 24.1667 28.750801 L 47.5 28.750801 C 47.721001 28.750801 47.932999 28.8386 48.089298 28.9949 C 48.245499 29.151199 48.333302 29.363098 48.333302 29.584198 L 48.333302 45.4175 C 48.333302 45.6385 48.245499 45.850498 48.089298 46.006802 C 47.932999 46.162998 47.721001 46.250801 47.5 46.250801 L 24.1667 46.250801 C 23.9457 46.250801 23.7337 46.162998 23.5774 46.006802 C 23.421101 45.850498 23.3333 45.6385 23.3333 45.4175 Z"/>
</svg>
