<?xml version="1.0" encoding="UTF-8"?>
<!-- Generated by Pixelmator Pro 2.4.2 -->
<svg width="80" height="80" viewBox="0 0 80 80" xmlns="http://www.w3.org/2000/svg" xmlns:xlink="http://www.w3.org/1999/xlink">
    <linearGradient id="linearGradient1" x1="44.74545" y1="49.842627" x2="-6.542176" y2="-6.787879" gradientUnits="userSpaceOnUse">
        <stop offset="1e-05" stop-color="#001e00" stop-opacity="1"/>
        <stop offset="1" stop-color="#00b900" stop-opacity="1"/>
    </linearGradient>
    <path id="Path-copy" fill="url(#linearGradient1)" stroke="none" d="M 24 0 L 56 0 C 69.254837 0 80 10.745163 80 24 L 80 56 C 80 69.254837 69.254837 80 56 80 L 24 80 C 10.745166 80 0 69.254837 0 56 L 0 24 C 0 10.745163 10.745166 0 24 0 Z"/>
    <path id="path1" fill="#beecb0" stroke="none" d="M 11 57.817062 C 11 59.722122 11.756794 61.549171 13.103883 62.896259 C 14.450826 64.243347 16.277878 65 18.182936 65 L 61.280552 65 C 63.185608 65 65.012657 64.243347 66.359604 62.896259 C 67.706696 61.549171 68.463486 59.722122 68.463486 57.817062 L 68.463486 23.09964 C 68.463486 21.194576 67.706696 19.367527 66.359604 18.020435 C 65.012657 16.673492 63.185608 15.916702 61.280552 15.916702 L 18.182936 15.916702 C 16.277878 15.916702 14.450826 16.673492 13.103883 18.020435 C 11.756794 19.367527 11 21.194576 11 23.09964 L 11 57.817062 Z M 45.717567 21.902378 C 45.706367 22.327759 45.578796 22.741783 45.348797 23.09964 C 45.149113 23.461941 44.855762 23.764198 44.499493 23.974514 C 44.143215 24.184975 43.736946 24.296024 43.323212 24.296024 C 42.909477 24.296024 42.503204 24.184975 42.146931 23.974514 C 41.790661 23.764198 41.497311 23.461941 41.297623 23.09964 C 41.067627 22.741783 40.940056 22.327759 40.928852 21.902378 C 40.93977 21.477154 41.067337 21.062984 41.297623 20.705276 C 41.497311 20.342972 41.790661 20.04071 42.146931 19.83025 C 42.503204 19.619934 42.909477 19.508884 43.323212 19.508884 C 43.736946 19.508884 44.143215 19.619934 44.499493 19.83025 C 44.855762 20.04071 45.149113 20.342972 45.348797 20.705276 C 45.579086 21.062984 45.706654 21.477154 45.717567 21.902378 L 45.717567 21.902378 Z M 54.097614 21.902378 C 54.086407 22.327759 53.958839 22.741783 53.728844 23.09964 C 53.52916 23.461941 53.235806 23.764198 52.879532 23.974514 C 52.523258 24.184975 52.117134 24.296024 51.703259 24.296024 C 51.289516 24.296024 50.883251 24.184975 50.526978 23.974514 C 50.1707 23.764198 49.877499 23.461941 49.67767 23.09964 C 49.447666 22.741783 49.320244 22.327759 49.309036 21.902378 C 49.319809 21.477154 49.447384 21.062984 49.67767 20.705276 C 49.877499 20.342972 50.1707 20.04071 50.526978 19.83025 C 50.883251 19.619934 51.289516 19.508884 51.703259 19.508884 C 52.117134 19.508884 52.523258 19.619934 52.879532 19.83025 C 53.235806 20.04071 53.52916 20.342972 53.728844 20.705276 C 53.959274 21.062984 54.086842 21.477154 54.097614 21.902378 L 54.097614 21.902378 Z M 62.477661 21.902378 C 62.466454 22.327759 62.339031 22.741783 62.109028 23.09964 C 61.909199 23.461941 61.615997 23.764198 61.25972 23.974514 C 60.903446 24.184975 60.497181 24.296024 60.083439 24.296024 C 59.669563 24.296024 59.263439 24.184975 58.907166 23.974514 C 58.550892 23.764198 58.257538 23.461941 58.057854 23.09964 C 57.827858 22.741783 57.700291 22.327759 57.689083 21.902378 C 57.699856 21.477154 57.827423 21.062984 58.057854 20.705276 C 58.2607 20.345554 58.554771 20.045597 58.910328 19.835423 C 59.265881 19.625248 59.670425 19.512478 60.083439 19.508171 C 60.543438 19.510178 60.993088 19.644791 61.378666 19.89576 C 61.764252 20.146729 62.069237 20.503437 62.257431 20.923203 C 62.400085 21.230061 62.475216 21.564068 62.477661 21.902378 L 62.477661 21.902378 Z M 15.788575 28.484394 C 15.788575 28.325653 15.851641 28.173374 15.963984 28.061176 C 16.076181 27.948833 16.228458 27.885765 16.387201 27.885765 L 63.076286 27.885765 C 63.235027 27.885765 63.387306 27.948833 63.499504 28.061176 C 63.611843 28.173374 63.674908 28.325653 63.674908 28.484394 L 63.674908 57.814762 C 63.674908 58.449738 63.422646 59.058708 62.973572 59.507782 C 62.524635 59.956718 61.915524 60.208977 61.280552 60.208977 L 18.182936 60.208977 C 17.547966 60.208977 16.938852 59.956718 16.48992 59.507782 C 16.04084 59.058708 15.788575 58.449738 15.788575 57.814762 L 15.788575 28.484394 Z"/>
    <path id="path2" fill="#beecb0" stroke="none" d="M 27.264608 51.129745 C 27.713541 51.578682 28.322367 51.830807 28.95734 51.830807 C 29.592165 51.830807 30.201136 51.578682 30.650068 51.129745 L 36.635899 45.144066 C 37.084686 44.694988 37.336952 44.086159 37.336952 43.451191 C 37.336952 42.81636 37.084686 42.20739 36.635899 41.758457 L 30.650068 35.772633 C 30.198549 35.336483 29.593748 35.095139 28.96596 35.100597 C 28.338171 35.106056 27.737675 35.357891 27.29377 35.801792 C 26.849722 36.245701 26.598032 36.846336 26.592575 37.474125 C 26.587114 38.101913 26.828463 38.706718 27.264608 39.158237 L 31.133768 43.027397 C 31.189507 43.082993 31.233753 43.149078 31.263922 43.221767 C 31.29409 43.294601 31.30961 43.372463 31.30961 43.451191 C 31.30961 43.529915 31.29409 43.607925 31.263922 43.680614 C 31.233753 43.753304 31.189507 43.819386 31.133768 43.874985 L 27.264608 47.744289 C 26.815674 48.193222 26.563555 48.802193 26.563555 49.437019 C 26.563555 50.071846 26.815674 50.680813 27.264608 51.129745 L 27.264608 51.129745 Z"/>
    <path id="path3" fill="#beecb0" stroke="none" d="M 42.126102 51.831375 L 51.703259 51.831375 C 52.338367 51.831375 52.947338 51.579113 53.396271 51.130035 C 53.845352 50.681107 54.097614 50.071991 54.097614 49.437019 C 54.097614 48.802044 53.845352 48.193081 53.396271 47.743999 C 52.947338 47.294922 52.338367 47.04266 51.703259 47.04266 L 42.126102 47.04266 C 41.49099 47.04266 40.882019 47.294922 40.433086 47.743999 C 39.984005 48.193081 39.731743 48.802044 39.731743 49.437019 C 39.731743 50.071991 39.984005 50.681107 40.433086 51.130035 C 40.882019 51.579113 41.49099 51.831375 42.126102 51.831375 L 42.126102 51.831375 Z"/>
</svg>
