<svg width="80" height="80" viewBox="0 0 80 80" fill="none" xmlns="http://www.w3.org/2000/svg">
<rect width="80" height="80" rx="24" fill="#E9E7FF"/>
<path d="M60 32.0842C60 31.6421 59.8244 31.2182 59.5118 30.9057C59.1993 30.5931 58.7753 30.4175 58.3333 30.4175H53.75C53.6398 30.4175 53.534 30.4612 53.4559 30.5389C53.3778 30.6167 53.3338 30.7223 53.3333 30.8325V47.9158C53.3333 48.7999 52.9821 49.6477 52.357 50.2729C51.7319 50.898 50.884 51.2492 50 51.2492H48.75C48.6395 51.2492 48.5335 51.2931 48.4554 51.3712C48.3772 51.4493 48.3333 51.5553 48.3333 51.6658V52.9158C48.3333 53.3579 48.5089 53.7818 48.8215 54.0943C49.134 54.4069 49.558 54.5825 50 54.5825H58.3333C58.7753 54.5825 59.1993 54.4069 59.5118 54.0943C59.8244 53.7818 60 53.3579 60 52.9158V32.0842Z" fill="#4A3AFF"/>
<path d="M40 51.2508H37.9167C37.8062 51.2508 37.7002 51.2069 37.622 51.1288C37.5439 51.0506 37.5 50.9447 37.5 50.8342V49.9992C37.5 49.8887 37.5439 49.7827 37.622 49.7045C37.7002 49.6264 37.8062 49.5825 37.9167 49.5825H48.3333C49.2174 49.5825 50.0652 49.2313 50.6904 48.6062C51.3155 47.9811 51.6667 47.1332 51.6667 46.2492V28.7508C51.6667 27.8668 51.3155 27.0189 50.6904 26.3938C50.0652 25.7687 49.2174 25.4175 48.3333 25.4175H23.3333C22.4493 25.4175 21.6014 25.7687 20.9763 26.3938C20.3512 27.0189 20 27.8668 20 28.7508V46.2508C20 47.1349 20.3512 47.9827 20.9763 48.6079C21.6014 49.233 22.4493 49.5842 23.3333 49.5842H33.75C33.8602 49.5842 33.9659 49.6278 34.044 49.7056C34.1221 49.7834 34.1662 49.8889 34.1667 49.9992V50.8325C34.1667 50.943 34.1228 51.049 34.0446 51.1271C33.9665 51.2053 33.8605 51.2492 33.75 51.2492H31.6667C31.2246 51.2492 30.8007 51.4248 30.4882 51.7373C30.1756 52.0499 30 52.4738 30 52.9158C30 53.3579 30.1756 53.7818 30.4882 54.0943C30.8007 54.4069 31.2246 54.5825 31.6667 54.5825H40C40.442 54.5825 40.8659 54.4069 41.1785 54.0943C41.4911 53.7818 41.6667 53.3579 41.6667 52.9158C41.6667 52.4738 41.4911 52.0499 41.1785 51.7373C40.8659 51.4248 40.442 51.2492 40 51.2492V51.2508ZM23.3333 45.4175V29.5842C23.3333 29.3631 23.4211 29.1512 23.5774 28.9949C23.7337 28.8386 23.9457 28.7508 24.1667 28.7508H47.5C47.721 28.7508 47.933 28.8386 48.0893 28.9949C48.2455 29.1512 48.3333 29.3631 48.3333 29.5842V45.4175C48.3333 45.6385 48.2455 45.8505 48.0893 46.0068C47.933 46.163 47.721 46.2508 47.5 46.2508H24.1667C23.9457 46.2508 23.7337 46.163 23.5774 46.0068C23.4211 45.8505 23.3333 45.6385 23.3333 45.4175Z" fill="#4A3AFF"/>
</svg>
