<svg width="80" height="80" viewBox="0 0 80 80" fill="none" xmlns="http://www.w3.org/2000/svg">
<rect width="80" height="80" rx="24" fill="#E9E7FF"/>
<path d="M40 20C36.0444 20 32.1776 21.173 28.8886 23.3706C25.5996 25.5682 23.0362 28.6918 21.5224 32.3463C20.0087 36.0009 19.6126 40.0222 20.3843 43.9018C21.156 47.7814 23.0608 51.3451 25.8579 54.1421C28.6549 56.9392 32.2186 58.844 36.0982 59.6157C39.9778 60.3874 43.9992 59.9913 47.6537 58.4776C51.3082 56.9638 54.4318 54.4004 56.6294 51.1114C58.827 47.8224 60 43.9556 60 40C59.9943 34.6974 57.8853 29.6137 54.1358 25.8642C50.3863 22.1147 45.3026 20.0057 40 20V20ZM49.1667 44.5383C49.1663 44.6879 49.1257 44.8347 49.0491 44.9631C48.9725 45.0916 48.8627 45.1971 48.7313 45.2685C48.5998 45.34 48.4516 45.3747 48.3021 45.3691C48.1526 45.3635 48.0074 45.3177 47.8817 45.2367L44.81 43.2467C44.7471 43.2059 44.6743 43.1828 44.5994 43.1799C44.5244 43.177 44.4501 43.1944 44.3842 43.2303C44.3183 43.2661 44.2634 43.3191 44.2251 43.3836C44.1868 43.448 44.1666 43.5217 44.1667 43.5967V45.8333C44.1667 46.0543 44.0789 46.2663 43.9226 46.4226C43.7663 46.5789 43.5544 46.6667 43.3333 46.6667H31.6667C31.4457 46.6667 31.2337 46.5789 31.0774 46.4226C30.9211 46.2663 30.8333 46.0543 30.8333 45.8333V34.1667C30.8333 33.9457 30.9211 33.7337 31.0774 33.5774C31.2337 33.4211 31.4457 33.3333 31.6667 33.3333H43.3333C43.5544 33.3333 43.7663 33.4211 43.9226 33.5774C44.0789 33.7337 44.1667 33.9457 44.1667 34.1667V36.4033C44.1671 36.4781 44.1877 36.5514 44.2261 36.6155C44.2645 36.6797 44.3194 36.7324 44.3851 36.7681C44.4508 36.8039 44.5248 36.8213 44.5996 36.8187C44.6743 36.8161 44.747 36.7936 44.81 36.7533L47.8817 34.7633C48.0073 34.6819 48.1525 34.6359 48.3021 34.63C48.4517 34.6242 48.6001 34.6587 48.7317 34.73C48.8632 34.8016 48.9731 34.9073 49.0496 35.0361C49.1262 35.1649 49.1666 35.3119 49.1667 35.4617V44.5383Z" fill="#4A3AFF"/>
</svg>
