<svg width="80" height="80" viewBox="0 0 80 80" fill="none" xmlns="http://www.w3.org/2000/svg">
<rect width="80" height="80" rx="24" fill="#E9E7FF"/>
<path d="M44.5813 48.1038C48.0315 48.1038 50.8284 45.3068 50.8284 41.8566C50.8284 38.4064 48.0315 35.6094 44.5813 35.6094C41.131 35.6094 38.3341 38.4064 38.3341 41.8566C38.3341 45.3068 41.131 48.1038 44.5813 48.1038Z" fill="#4A3AFF"/>
<path d="M55.7329 30.1952H53.5406C53.365 30.189 53.1952 30.1309 53.0526 30.0283C52.91 29.9257 52.801 29.7832 52.7393 29.6188C51.7097 27.4464 50.6452 25.1974 48.3296 25.1974H40C38.2158 25.1974 37.2746 26.4935 35.5703 28.8475C34.9306 29.7254 34.7207 30.1952 34.1643 30.1952H24.1688C20.732 30.1952 20.009 32.2093 20.009 33.8985V51.2041C19.9704 51.761 20.0564 52.3196 20.2608 52.8392C20.4653 53.3587 20.783 53.8261 21.1909 54.2073C21.5988 54.5886 22.0866 54.874 22.6187 55.043C23.1509 55.2119 23.714 55.2601 24.2671 55.1839H55.7329C56.286 55.2601 56.8491 55.2119 57.3813 55.043C57.9134 54.874 58.4012 54.5886 58.8091 54.2073C59.217 53.8261 59.5347 53.3587 59.7392 52.8392C59.9436 52.3196 60.0296 51.761 59.991 51.2041V33.8985C59.991 32.2093 59.253 30.1952 55.7329 30.1952V30.1952ZM54.1603 41.8566C54.1603 43.7512 53.5985 45.6032 52.5459 47.1784C51.4934 48.7537 49.9973 49.9814 48.247 50.7065C46.4967 51.4315 44.5706 51.6212 42.7125 51.2516C40.8543 50.882 39.1475 49.9696 37.8079 48.63C36.4682 47.2903 35.5559 45.5835 35.1863 43.7254C34.8167 41.8672 35.0064 39.9412 35.7314 38.1909C36.4564 36.4405 37.6842 34.9445 39.2595 33.8919C40.8347 32.8394 42.6867 32.2776 44.5813 32.2776C47.121 32.2802 49.5559 33.2903 51.3517 35.0861C53.1476 36.882 54.1576 39.3169 54.1603 41.8566V41.8566ZM28.3386 36.4424C28.3386 36.8542 28.2165 37.2568 27.9876 37.5993C27.7588 37.9417 27.4336 38.2086 27.0531 38.3663C26.6726 38.5239 26.2539 38.5651 25.8499 38.4848C25.446 38.4044 25.0749 38.2061 24.7837 37.9149C24.4925 37.6236 24.2942 37.2526 24.2138 36.8486C24.1335 36.4447 24.1747 36.026 24.3323 35.6455C24.4899 35.265 24.7568 34.9397 25.0993 34.7109C25.4417 34.4821 25.8443 34.36 26.2562 34.36C26.8085 34.36 27.3381 34.5794 27.7287 34.9699C28.1192 35.3604 28.3386 35.8901 28.3386 36.4424Z" fill="#4A3AFF"/>
<path d="M24.1738 28.5026L29.1716 28.5293C29.3925 28.5293 29.6043 28.4415 29.7605 28.2853C29.9168 28.1291 30.0045 27.9172 30.0045 27.6963V27.2798C30.0045 26.6171 29.7412 25.9815 29.2726 25.5129C28.804 25.0442 28.1684 24.781 27.5056 24.781H25.8397C25.177 24.781 24.5414 25.0442 24.0728 25.5129C23.6041 25.9815 23.3409 26.6171 23.3409 27.2798V27.6697C23.3409 27.8906 23.4286 28.1025 23.5848 28.2587C23.741 28.4149 23.9529 28.5026 24.1738 28.5026Z" fill="#4A3AFF"/>
</svg>
