<svg width="124" height="28" viewBox="0 0 124 28" fill="none" xmlns="http://www.w3.org/2000/svg">
<path d="M20.6722 27.3346L12.5963 27.1868C9.98144 27.1354 7.36015 27.2382 4.79667 26.705C0.896858 25.9083 0.620594 22.0021 0.331481 18.7255C-0.066853 14.1189 0.0873408 9.42885 0.839035 4.86086C1.26307 2.29739 2.9335 0.768305 5.51625 0.601262C14.2346 -0.0026634 23.0108 0.0680087 31.7099 0.350697C32.6286 0.376396 33.5538 0.517741 34.4597 0.678359C38.9313 1.46218 39.0405 5.88882 39.3296 9.61517C39.6188 13.3801 39.4967 17.1642 38.9442 20.9034C38.5009 24.0002 37.6528 26.5958 34.0742 26.8463C29.5897 27.174 25.2081 27.4374 20.7108 27.3539C20.7108 27.3346 20.6851 27.3346 20.6722 27.3346V27.3346ZM15.9243 19.4964C19.3037 17.5562 22.6189 15.648 25.979 13.7206C22.5932 11.7803 19.2845 9.87216 15.9243 7.94474V19.4964Z" fill="#88849C"/>
<path d="M104.106 23.8138C103.952 24.4434 103.817 24.9381 103.682 25.465H100.521V1.08307H104.209V10.0777C104.402 9.83356 104.498 9.73077 104.581 9.62155C105.211 8.75421 106.027 8.18883 107.081 7.97039C108.758 7.64273 110.19 8.38157 110.698 9.99418C111.025 10.9964 111.237 12.0694 111.263 13.1166C111.315 15.8086 111.276 18.4941 111.18 21.1861C111.141 22.0084 110.891 22.8501 110.576 23.6211C109.541 26.1652 106.162 26.5507 104.485 24.347C104.382 24.2121 104.286 24.0644 104.106 23.8138V23.8138ZM104.286 17.1064V21.5651C104.286 22.2911 104.671 22.7344 105.397 22.9015C106.111 23.0685 106.689 22.7923 106.978 22.1305C107.1 21.8542 107.222 21.5651 107.228 21.276C107.299 18.5519 107.363 15.8278 107.383 13.0973C107.383 12.5898 107.261 12.0629 107.106 11.5682C106.817 10.6752 106.021 10.4118 105.237 10.9322C104.646 11.3305 104.286 11.8959 104.286 12.6476V17.1064ZM94.2633 8.31733H98.1246V25.4778H95.1114C95.0022 24.8289 94.8929 24.1607 94.7644 23.3769C94.5588 23.6789 94.4368 23.8716 94.3083 24.0644C93.306 25.5099 91.8862 26.0046 90.2093 25.7412C88.7766 25.5099 87.9157 24.4049 87.7229 22.5931C87.6651 22.0534 87.6394 21.5073 87.6394 20.9676C87.6265 16.9522 87.6394 12.9239 87.6394 8.9084V8.30448H91.5456V9.00477C91.5456 12.8853 91.5328 16.7594 91.5585 20.64C91.5585 21.1925 91.6163 21.7643 91.7127 22.3168C91.8219 22.8822 92.2331 23.0878 92.7856 23.0493C93.6787 22.9786 94.2954 22.3168 94.2954 21.4302V9.07545C94.2633 8.82488 94.2633 8.59359 94.2633 8.31733V8.31733ZM67.6777 8.30448H71.5583V9.03047C71.5583 12.8917 71.5454 16.7466 71.5711 20.595C71.5711 21.1475 71.6225 21.7193 71.7382 22.259C71.8859 22.8951 72.2586 23.1006 72.8946 23.0171C73.7748 22.8951 74.3081 22.2847 74.3145 21.3917V9.10114V8.33017H78.1758V25.4778H75.1754C75.0662 24.8418 74.957 24.1864 74.8156 23.3576C74.6229 23.6468 74.5137 23.8138 74.4044 23.9873C73.4022 25.4585 71.9952 25.9982 70.2798 25.7348C68.9049 25.5292 68.0632 24.5141 67.8062 22.8501C67.7356 22.3297 67.6842 21.8157 67.6842 21.2953C67.6713 17.1256 67.6713 12.9367 67.6713 8.76706L67.6777 8.30448ZM65.6861 17.4662C65.6732 18.0444 65.6347 18.6226 65.6025 19.2008C65.4548 20.9355 65.3841 23.3962 63.9835 24.6619C63.0905 25.4585 61.9597 25.7476 60.7904 25.7862C60.27 25.799 59.7432 25.799 59.2228 25.7284C56.7621 25.3557 55.6185 24.27 55.2073 21.5651C54.7383 18.4427 54.6998 15.2689 55.2587 12.1465C55.8369 8.91483 57.8286 7.77122 60.9253 7.98324C63.8165 8.18883 65.1078 10.0841 65.4483 12.7825C65.6347 14.3309 65.7246 15.8985 65.6861 17.4662V17.4662ZM61.7541 16.8751C61.7541 15.7764 61.7798 14.6714 61.7413 13.5728C61.7156 12.9367 61.6321 12.2942 61.4971 11.6646C61.3429 10.9386 60.8804 10.5917 60.3021 10.6045C59.7368 10.6174 59.3384 10.9643 59.1328 11.6389C59.0622 11.8895 58.9851 12.1465 58.9851 12.397C58.9851 14.1189 58.9722 15.8471 58.9594 17.5689C58.9465 19.1751 58.7409 20.8584 59.2485 22.3939C59.4027 22.8629 59.801 23.1199 60.3214 23.1199C60.829 23.1199 61.163 22.8694 61.3494 22.4196C61.4971 22.0727 61.6256 21.6936 61.6256 21.321C61.6706 19.8433 61.7541 18.3592 61.7541 16.8751ZM49.5407 13.6434C49.8812 11.9794 50.2024 10.354 50.5558 8.72208C50.9991 6.64689 51.4938 4.5717 51.9307 2.49009C52.0399 1.98253 52.2455 1.86046 52.7274 1.87331C53.7617 1.91186 54.8154 1.88616 55.9205 1.88616C55.5607 3.20966 55.2073 4.46891 54.8604 5.70888C53.7617 9.60227 52.6631 13.5085 51.5773 17.4148C51.4938 17.7167 51.4553 18.0444 51.4553 18.3656C51.4424 20.4986 51.4553 22.6252 51.4553 24.7582V25.4521H47.6839C47.6711 25.2594 47.6454 25.0666 47.6454 24.8739C47.6454 23.666 47.549 22.4518 47.6582 21.2567C47.9345 18.3849 47.0222 15.7443 46.2834 13.0716C45.3068 9.53803 44.3174 5.99157 43.3408 2.45796C43.2894 2.29092 43.2701 2.11103 43.2188 1.90544H47.0672C47.8767 5.80525 48.6926 9.70507 49.5407 13.6434ZM123.329 18.1215H116.827C116.898 19.4257 116.923 20.6657 117.058 21.8928C117.155 22.7473 117.624 23.1135 118.362 23.1199C119.133 23.1328 119.583 22.7473 119.763 21.8992C119.821 21.623 119.859 21.3467 119.885 21.064C119.911 20.8134 119.924 20.5436 119.943 20.1838C121.042 20.2416 122.115 20.3059 123.175 20.3509C123.791 22.1819 122.68 24.5334 120.81 25.2594C119.339 25.8376 117.829 25.8376 116.326 25.3943C115.214 25.0666 114.386 24.3599 114.013 23.2741C113.666 22.259 113.338 21.1989 113.268 20.1388C113.075 17.524 113.004 14.8834 113.403 12.2621C113.473 11.8252 113.595 11.4076 113.73 10.9836C114.27 9.23606 115.446 8.16313 117.264 7.98324C118.253 7.88687 119.275 7.92542 120.251 8.09246C121.832 8.36872 122.674 9.5059 123.04 10.9964C123.207 11.6967 123.329 12.4163 123.355 13.1295C123.361 14.7678 123.329 16.3932 123.329 18.1215ZM119.635 15.8664C119.635 14.575 119.647 13.3607 119.622 12.14C119.622 11.8509 119.513 11.549 119.403 11.2727C119.185 10.733 118.729 10.5853 118.183 10.5853C117.637 10.5853 117.29 10.8615 117.155 11.3562C116.743 12.8403 116.878 14.3566 116.891 15.8792C117.874 15.8664 118.767 15.8664 119.635 15.8664V15.8664Z" fill="#88849C"/>
<path d="M81.1567 5.03416H77.334V1.93744H88.7443V5.01489H84.9473V25.452H81.1631L81.1567 5.03416Z" fill="#88849C"/>
</svg>
