<svg width="127" height="25" viewBox="0 0 127 25" fill="none" xmlns="http://www.w3.org/2000/svg">
<path d="M8.01935 24.1229H3.24939V12.232H0V8.36051H3.24926V5.6057C3.24926 2.34125 4.68642 0 9.44347 0C10.4496 0 12.0292 0.202794 12.0292 0.202794V3.79764H10.3701C8.67964 3.79764 8.01961 4.31184 8.01961 5.73343V8.36051H11.9659L11.6145 12.232H8.01948L8.01935 24.1229ZM18.9642 8.05113C18.8947 8.05113 18.8231 8.05366 18.7524 8.05543C14.3294 8.05543 12.3058 11.3824 12.3058 16.1052C12.3058 22.0546 14.9307 24.4357 18.7869 24.4357C20.9932 24.4357 22.4428 23.507 23.3239 21.774V24.1245H27.8608V8.36215H23.3239V10.7862C22.6045 9.22663 21.1144 8.06961 18.9642 8.05113ZM20.1178 11.7757C21.9754 11.7757 23.0904 13.0715 23.0904 15.2755L23.0947 17.5266C23.0947 19.0121 22.1738 20.7501 20.1178 20.7501C16.9569 20.7501 17.0413 17.337 17.0413 16.2002C17.0413 12.3764 18.7254 11.7757 20.1178 11.7757ZM29.693 16.2442C29.693 14.3288 29.6014 8.06138 37.7668 8.06138C41.0445 8.06138 42.4132 9.10358 42.4132 9.10358L41.3132 12.5155C41.3132 12.5155 39.9463 11.7628 38.1652 11.7628C35.8839 11.7628 34.4283 13.0853 34.4283 15.4121L34.4308 17.0805C34.4308 19.3163 35.8353 20.8088 38.1699 20.8088C39.7925 20.8088 41.288 20.049 41.288 20.049L42.3852 23.3897C42.3852 23.3897 41.1338 24.4385 37.7897 24.4385C30.0149 24.4385 29.6931 18.8154 29.6931 16.2442H29.693ZM69.0148 8.05543C73.4379 8.05543 75.4935 11.3824 75.4935 16.1052C75.4935 22.0546 72.8684 24.4357 69.0122 24.4357C66.8058 24.4357 65.1749 23.5072 64.2938 21.774V24.1245L59.814 24.1228V0.479262L64.5704 0.0644333V10.5726C65.2569 8.7342 67.513 8.05543 69.0149 8.05543H69.0148ZM67.6813 11.7757C65.8237 11.7757 64.5704 13.0715 64.5704 15.2755L64.566 17.5266C64.5632 19.0121 65.4339 20.7501 67.6813 20.7501C70.8422 20.7501 70.7578 17.337 70.7578 16.2002C70.7578 12.3764 69.0738 11.7757 67.6813 11.7757ZM50.666 8.06847C45.6493 8.06847 43.0008 10.8037 43.0008 15.6644V16.5675C43.0008 22.8762 46.7201 24.5005 51.1542 24.5005C55.4642 24.5005 57.415 23.295 57.415 23.295L56.525 20.0847C56.525 20.0847 54.2302 21.0611 51.7245 21.0611C49.1269 21.0611 48.0098 20.399 47.7234 17.9027H57.7953V15.3273C57.7953 10.0546 54.8229 8.06834 50.6659 8.06834L50.666 8.06847ZM50.7869 11.283C52.5234 11.283 53.6487 12.3479 53.5869 14.8175H47.7322C47.8337 12.2183 49.0472 11.2832 50.7869 11.2832V11.283ZM84.9776 8.04682C79.8258 8.04682 77.1137 10.95 77.1137 16.1526C77.1137 23.2909 81.7888 24.44 84.9862 24.44C89.6669 24.44 92.781 21.92 92.781 16.2175C92.781 10.2821 89.2795 8.04682 84.9776 8.04682V8.04682ZM84.9128 11.7886C87.178 11.7886 88.0757 13.484 88.0757 15.4139V17.0731C88.0757 19.4109 86.8197 20.7631 84.9041 20.7631C83.1127 20.7631 81.8536 19.4982 81.8536 17.0731V15.4139C81.8536 12.8274 83.3518 11.7886 84.9128 11.7886V11.7886ZM102.257 8.04682C97.1048 8.04682 94.3927 10.95 94.3927 16.1526C94.3927 23.2909 99.0678 24.44 102.265 24.44C106.946 24.44 110.06 21.92 110.06 16.2175C110.06 10.2821 106.558 8.04682 102.257 8.04682V8.04682ZM102.192 11.7886C104.457 11.7886 105.355 13.484 105.355 15.4139V17.0731C105.355 19.4109 104.099 20.7631 102.183 20.7631C100.392 20.7631 99.1326 19.4982 99.1326 17.0731V15.4139C99.1326 12.8274 100.631 11.7886 102.192 11.7886V11.7886ZM111.857 24.1229V0.479262L116.628 0.0644333V15.9119L121.36 8.36051H126.398L121.461 16.1815L126.588 24.1229H121.536L116.628 16.4119V24.1229H111.857Z" fill="#88849C"/>
</svg>
