<svg width="137" height="35" viewBox="0 0 137 35" fill="none" xmlns="http://www.w3.org/2000/svg">
<path d="M44.3033 14.0251C44.3033 11.5835 41.9291 8.99045 37.8206 8.99045C33.2069 8.99045 28.1386 12.3749 27.364 19.1271C26.5726 25.9466 30.8159 28.9775 35.0928 28.9775C39.3697 28.9775 41.6092 27.3105 43.8992 25.0878C41.9291 22.6126 39.3865 23.7576 38.8982 24.0102C38.3594 24.2796 37.669 24.65 36.2546 24.65C34.6045 24.65 32.9207 23.9091 32.9207 20.8277C43.4951 19.7838 44.3033 16.4666 44.3033 14.0251ZM39.0666 14.4292C38.9993 15.1869 38.6962 16.4835 33.3416 17.2075C34.4698 13.2 36.6251 12.8969 37.6185 12.8969C38.5446 12.8969 39.134 13.621 39.0666 14.4292ZM21.1507 15.0859C21.1507 15.0859 18.8776 22.2253 18.6923 22.8147C18.625 22.2085 16.958 9.39457 16.958 9.39457C13.0852 9.39457 11.0141 12.156 9.9196 15.0691C9.9196 15.0691 7.15813 22.2253 6.92239 22.8315C6.90555 22.2758 6.50143 15.1532 6.50143 15.1532C6.2657 11.5835 2.99907 9.4114 0.355469 9.4114L3.55474 28.8259C7.61276 28.8091 9.80173 26.0644 10.9467 23.1514C10.9467 23.1514 13.3883 16.8371 13.4893 16.5508C13.5061 16.8202 15.2405 28.8259 15.2405 28.8259C19.3153 28.8259 21.5043 26.2497 22.683 23.4377L28.3912 9.4114C24.3668 9.4114 22.2452 12.156 21.1507 15.0859ZM59.2557 8.95677C56.7468 8.95677 54.8272 10.3207 53.2108 12.3244V12.3076L54.6588 0.638672C51.3249 0.638672 48.6139 3.53485 48.0919 7.84545L45.5662 28.6744C47.4857 28.6744 49.5232 28.1187 50.6177 26.7043C51.5943 27.9672 53.0592 28.9775 55.2313 28.9775C60.8553 28.9775 64.7113 22.4442 64.7113 16.3151C64.6776 10.7248 61.9666 8.95677 59.2557 8.95677ZM58.7337 18.9755C58.1444 22.3937 56.2416 24.7174 54.4063 24.7174C52.5541 24.7174 51.7627 23.8923 51.7627 23.8923C52.1163 20.8951 52.3352 19.0597 53.0087 17.4769C53.6822 15.8941 55.2819 13.3684 56.9488 13.3684C58.5822 13.3684 59.323 15.5405 58.7337 18.9755ZM78.7544 9.4114H74.8311L74.8479 9.20934C75.1173 6.64993 75.7235 5.30287 77.7272 5.08397C79.0911 4.94927 79.6973 4.24206 79.8489 3.4675C79.9667 2.86132 80.3372 0.75654 80.3372 0.75654C72.4569 0.706026 69.9817 4.10735 69.3418 9.29354L69.325 9.4114H69.2408C67.9611 9.4114 66.5466 10.8595 66.3109 12.6949L66.2267 13.3684H68.8535L66.6477 31.5874L65.9741 34.854C66.0583 34.854 66.1594 34.8708 66.2436 34.8708C69.9311 34.7361 72.2885 31.8231 72.8105 27.5967L74.528 13.3684H75.7572C76.9695 13.3684 78.3839 12.156 78.6365 10.1354L78.7544 9.4114ZM99.1624 9.07464C94.6329 9.07464 90.3559 12.4086 89.0426 17.6453C87.7292 22.882 89.7161 29.0785 96.384 29.0785C103.035 29.0785 106.874 22.6294 106.874 17.258C106.874 11.9203 103.254 9.07464 99.1624 9.07464ZM100.998 18.8071C100.762 21.1813 99.718 24.7847 96.8555 24.7847C93.9762 24.7847 94.3803 20.5752 94.6665 18.5714C94.9696 16.433 96.1652 13.3852 98.7414 13.3852C101.048 13.3852 101.267 16.1299 100.998 18.8071ZM129.252 15.0859C129.252 15.0859 126.979 22.2253 126.794 22.8147C126.727 22.2085 125.06 9.39457 125.06 9.39457C121.187 9.39457 119.116 12.156 118.021 15.0691C118.021 15.0691 115.26 22.2253 115.024 22.8315C115.007 22.2758 114.603 15.1532 114.603 15.1532C114.367 11.5835 111.101 9.4114 108.457 9.4114L111.64 28.8259C115.698 28.8091 117.887 26.0644 119.032 23.1514C119.032 23.1514 121.473 16.8371 121.557 16.5508C121.574 16.8202 123.308 28.8259 123.308 28.8259C127.383 28.8259 129.572 26.2497 130.751 23.4377L136.459 9.4114C132.452 9.4114 130.33 12.156 129.252 15.0859ZM82.4588 0.75654L79.1585 27.3778L78.485 30.6613C78.5692 30.6613 78.6702 30.6781 78.7544 30.6781C82.3073 30.6276 84.833 27.5125 85.3045 23.5892L87.2072 8.31692C87.7797 3.65272 85.0014 0.75654 82.4588 0.75654Z" fill="#88849C"/>
</svg>
