<svg width="137" height="34" viewBox="0 0 137 34" fill="none" xmlns="http://www.w3.org/2000/svg">
<path d="M15.0642 0.515999C13.305 0.713155 10.6661 1.53211 9.16469 2.35107C5.13058 4.51978 2.40073 7.90176 1.03581 12.406C0.762823 13.2856 0.44434 15.6818 0.459506 16.8041C0.459506 17.7899 0.762823 20.2012 0.944813 20.7776C1.03581 21.0505 1.23296 21.7027 1.39979 22.2031C1.67277 23.0524 2.9922 25.7216 3.21969 25.9036C3.26518 25.9491 3.50784 26.2524 3.73533 26.6012C4.29646 27.4354 5.76755 28.9216 6.87465 29.7709C7.72394 30.423 10.1201 31.8031 10.4235 31.8183C10.4993 31.8183 10.5145 31.242 10.469 30.4837C10.3628 28.8003 10.6813 26.5102 11.3637 24.1747C11.4851 23.7804 11.5761 23.2647 11.5761 23.0373C11.5761 22.8098 11.6367 22.5671 11.7126 22.4913C11.7884 22.4003 11.9249 21.9605 12.0007 21.5055C12.0917 21.0505 12.2434 20.3529 12.3495 19.9586C12.5012 19.3671 12.486 19.1396 12.2737 18.5027C11.9704 17.5321 11.9552 15.9548 12.2585 15.1965C12.9713 13.3918 13.7599 12.7093 15.0945 12.7093C16.7021 12.7093 17.4756 13.9226 17.1723 15.9548C17.0358 16.8799 16.6566 18.3359 16.414 18.7908C16.3533 18.9273 16.2471 19.3065 16.2016 19.6249C16.141 19.9586 16.0196 20.4287 15.9438 20.6866C15.7315 21.278 16.141 22.4306 16.6869 22.8704C17.2026 23.2799 18.2794 23.4012 19.2651 23.1738C19.9628 23.0221 20.2509 22.8401 20.9789 22.1425C21.8433 21.2932 22.4955 20.3074 22.4955 19.8373C22.4955 19.7008 22.5713 19.5188 22.6623 19.4278C23.0869 19.0031 23.3144 15.697 22.9959 14.3017C22.6471 12.77 21.5703 11.2686 20.1751 10.389C18.7798 9.49417 15.8983 9.23635 14.1239 9.84299C12.8803 10.2676 11.7732 10.9804 11.0604 11.8145C10.4235 12.5577 9.75616 13.7709 9.75616 14.1956C9.75616 14.3472 9.68033 14.5444 9.58934 14.6354C9.49834 14.7264 9.39218 15.3027 9.34668 15.9245C9.27085 16.8496 9.33152 17.2742 9.6045 18.1842C9.78649 18.806 10.1201 19.534 10.3173 19.8069C10.7268 20.3529 10.7268 20.5652 10.3476 22.0211C10.2415 22.4155 10.0595 22.7794 9.95332 22.8249C8.99787 23.1889 7.05664 20.8989 6.40451 18.624C6.16186 17.7595 6.14669 14.6809 6.38935 13.7709C6.49551 13.3918 6.6775 12.8762 6.79882 12.6032C6.92015 12.3453 7.02631 12.0875 7.02631 12.0269C7.02631 11.9662 7.32963 11.4506 7.70877 10.8894C9.68033 7.91692 12.8803 6.33968 16.9296 6.33968C17.8547 6.33968 18.8102 6.40034 19.068 6.47617C21.1609 7.1283 21.722 7.34062 22.541 7.82593C24.1334 8.78138 25.286 10.0856 26.4386 12.2695C26.5144 12.406 26.6206 12.77 26.6661 13.0733C26.7267 13.3766 26.8329 13.6648 26.9087 13.7103C26.9845 13.7558 27.0452 14.7415 27.0452 15.9093C27.0452 18.0174 26.8935 18.8667 26.2566 20.5956C25.5438 22.4913 23.7087 24.5842 22.0405 25.4031C21.085 25.8581 19.2955 26.3586 18.5827 26.3586C17.6272 26.3586 15.7467 25.57 15.231 24.933C14.9884 24.6448 14.7609 24.751 14.7609 25.1605C14.7609 25.3121 14.7002 25.57 14.6092 25.7216C14.5334 25.8581 14.3969 26.2827 14.3211 26.6619C13.8813 28.6638 13.2595 30.2865 12.304 31.8031C12.0159 32.2732 12.2585 32.5462 13.0471 32.6524C13.4415 32.7131 13.9723 32.8192 14.2149 32.8951C14.8215 33.0922 18.1125 33.0619 19.2196 32.8647C20.2206 32.6827 21.8433 32.2278 22.5713 31.9244C27.1514 30.0439 30.6243 26.2221 32.1258 21.3539C32.9296 18.7605 32.975 15.7425 32.2471 12.7093C32.0044 11.7235 31.9286 11.4961 31.2765 9.97948C30.3362 7.76527 28.213 5.17191 26.0594 3.5795C24.2092 2.21457 22.3893 1.42595 19.5533 0.743487C18.7647 0.561497 15.959 0.409839 15.0642 0.515999V0.515999ZM55.5115 5.99086C54.92 6.08186 53.9797 7.05247 53.7371 7.81076C53.4793 8.64489 53.7371 9.53967 54.465 10.2373C56.0726 11.7994 58.8631 10.3283 58.5143 8.08375C58.302 6.65816 56.9977 5.74821 55.5115 5.99086ZM38.9807 6.88565C38.8442 7.03731 38.8442 25.3273 38.9959 25.5396C39.0717 25.6609 39.7238 25.7064 40.9978 25.6913L42.8935 25.6761L42.9693 22.5974C43.03 20.0951 43.0907 19.4885 43.2726 19.3823C43.394 19.3065 44.4253 19.2306 45.5627 19.2306C48.0499 19.2306 49.0963 19.0486 50.2338 18.442C51.72 17.6382 52.5845 16.4856 53.0546 14.6506C53.3428 13.498 53.3428 12.6638 53.0394 11.4809C52.7665 10.4193 52.6451 10.1615 51.993 9.29702C51.1892 8.22024 50.3703 7.62877 49.0357 7.15863C48.2925 6.91598 47.6707 6.87048 43.6518 6.82499C41.1494 6.79465 39.0414 6.82499 38.9807 6.88565V6.88565ZM47.3068 10.6619C48.3229 10.9804 48.8233 11.4354 49.0508 12.2544C49.339 13.3311 49.1267 14.3321 48.4897 14.9387C47.7921 15.5908 47.1703 15.7425 45.138 15.7425C43.8034 15.7425 43.394 15.697 43.212 15.4998C43.0148 15.3179 42.9693 14.878 42.9693 13.1491C42.9693 10.4193 42.9542 10.4345 45.0622 10.4345C45.9722 10.4345 46.8518 10.5254 47.3068 10.6619ZM73.9076 9.76716C73.9076 10.8136 73.8318 11.7994 73.756 11.9662C73.6498 12.1634 73.4375 12.2544 73.0735 12.2544C72.8005 12.2544 72.5427 12.315 72.5124 12.406C72.4972 12.4818 72.4972 13.0126 72.5427 13.5738C72.6185 14.5747 72.6337 14.5899 73.0887 14.6961C73.3465 14.7415 73.6346 14.8325 73.7256 14.8932C73.8621 14.969 73.9076 16.1671 73.9076 19.2003C73.9076 23.2799 73.9228 23.4316 74.2564 24.0382C74.9541 25.3273 76.046 25.7823 78.2602 25.7216L79.7465 25.6761L79.792 24.205L79.8375 22.7188H79.4583C78.882 22.7188 78.0327 22.2638 77.9417 21.8998C77.8962 21.7178 77.8507 20.1103 77.8507 18.3055C77.8507 15.8183 77.8962 14.9842 78.0479 14.8629C78.1541 14.7719 78.5787 14.6809 78.9882 14.6506L79.7465 14.6051V12.3302L78.9124 12.2847C78.4574 12.2544 78.0327 12.1482 77.9721 12.0572C77.9114 11.951 77.8507 10.9653 77.8507 9.85815V7.85626H73.9076V9.76716ZM130.279 7.94726C130.218 8.00792 130.173 8.96337 130.173 10.0705C130.173 12.224 130.158 12.2544 129.324 12.2544C128.944 12.2544 128.944 12.2695 128.99 13.4221C129.035 14.5747 129.051 14.6051 129.445 14.6506C129.657 14.6809 129.915 14.787 129.991 14.878C130.082 14.9842 130.173 16.8193 130.218 19.1548C130.264 21.3993 130.34 23.4467 130.4 23.6894C130.582 24.3567 131.523 25.206 132.417 25.4941C133.418 25.8278 135.966 25.8581 136.224 25.5396C136.345 25.4031 136.391 24.8572 136.361 24.0685L136.315 22.7946L135.784 22.7036C135.208 22.6126 134.556 22.3093 134.389 22.0515C134.328 21.9605 134.268 20.3074 134.268 18.3813C134.268 14.4231 134.177 14.6809 135.496 14.6809C136.361 14.6809 136.436 14.5292 136.361 13.1491L136.315 12.3302L135.329 12.2544L134.343 12.1785L134.268 10.0553L134.192 7.93209L132.281 7.88659C131.234 7.87143 130.34 7.90176 130.279 7.94726V7.94726ZM66.4005 11.8904C65.6574 12.0875 64.793 12.588 64.2167 13.1795C63.519 13.9074 63.337 13.8619 63.2612 12.9368L63.2157 12.3302H59.4243V25.6761L61.3352 25.7064C63.2157 25.7519 63.2612 25.7368 63.3522 25.4031C63.3977 25.2211 63.4432 23.2951 63.4432 21.1112C63.4432 16.7889 63.4584 16.6676 64.3532 15.8183C64.7475 15.4392 64.9598 15.3633 65.8091 15.3178L66.7949 15.2572L67.3863 15.879C68.0839 16.6069 68.0081 15.9093 68.0688 22.188C68.0839 23.8562 68.0991 25.3273 68.1143 25.479C68.1446 25.6913 68.3873 25.7216 70.0858 25.6913L72.0119 25.6761V15.0297L71.5721 14.1652C70.8138 12.6638 69.646 11.951 67.8565 11.86C67.2195 11.8449 66.5674 11.8449 66.4005 11.8904V11.8904ZM85.3578 11.8904C83.7199 12.3302 82.9313 12.77 81.9152 13.7709C80.5503 15.151 79.9285 16.7586 79.9285 18.9273C79.9436 22.7339 82.3247 25.5548 85.8431 25.8884C88.846 26.1766 91.1663 25.297 92.6526 23.3102C92.8649 23.0221 93.3199 22.097 93.3199 21.9302C93.3199 21.8695 92.4403 21.8088 91.3787 21.8088H89.4374L88.9825 22.279C88.4517 22.8249 87.7085 23.1738 87.0261 23.1738C86.3436 23.1738 85.2972 22.6884 84.8119 22.1728C84.4479 21.7633 83.9171 20.5804 83.9171 20.1709C83.9171 20.0344 85.0242 19.9889 88.5882 19.9889C91.1512 19.9889 93.3199 19.9283 93.4261 19.8676C93.6535 19.7159 93.4412 17.3046 93.1076 16.425C92.4251 14.5899 91.136 13.043 89.8318 12.497C89.4526 12.3453 89.0128 12.1482 88.8611 12.0724C88.5427 11.9055 85.8431 11.769 85.3578 11.8904V11.8904ZM88.3152 15.2117C88.9066 15.6212 89.4223 16.5918 89.3464 17.1377C89.3009 17.4866 89.2706 17.4866 86.7076 17.5321C83.7503 17.5776 83.7351 17.5624 84.2052 16.4705C84.5389 15.7122 85.2062 15.0297 85.828 14.8325C86.5408 14.6051 87.6934 14.787 88.3152 15.2117ZM107.803 11.8904C106.044 12.3605 104.816 13.134 103.86 14.3321C103.481 14.8174 103.178 15.2724 103.178 15.3633C103.178 15.4392 103.072 15.7122 102.935 15.97C102.799 16.2126 102.601 16.9709 102.495 17.6534C101.964 20.8989 103.42 23.932 106.15 25.297L107.197 25.8278H109.396C111.671 25.8278 111.868 25.7823 113.263 25.0391C114.279 24.4932 115.947 22.37 115.689 21.9453C115.629 21.8695 114.764 21.8088 113.748 21.8088H111.883L111.504 22.2486C109.987 23.9624 107.151 23.0828 106.545 20.7017C106.454 20.3832 106.454 20.1103 106.529 20.0496C106.605 20.0041 108.774 19.9738 111.367 19.9889C115.068 19.9889 116.069 19.9586 116.084 19.8069C116.22 17.9112 115.31 15.1055 114.173 13.8923C113.536 13.2098 112.429 12.4515 111.883 12.315C111.64 12.2544 111.367 12.1482 111.261 12.0724C111.049 11.9055 108.273 11.769 107.803 11.8904V11.8904ZM110.169 14.8477C110.852 15.0904 111.64 15.9396 111.762 16.5918C111.944 17.5776 111.959 17.5776 109.138 17.5321C106.605 17.4866 106.59 17.4866 106.545 17.1377C106.484 16.7131 107.015 15.6667 107.47 15.2724C108.122 14.7264 109.259 14.5444 110.169 14.8477V14.8477ZM120.998 11.8904C117.889 12.6335 116.766 13.7406 116.751 16.0458C116.751 18.533 117.995 19.5795 121.68 20.2316C124.213 20.6714 124.941 21.0657 124.91 22.0211C124.895 22.7036 124.425 23.1434 123.485 23.3406C122.302 23.5984 121.377 23.3102 120.634 22.4761L120.042 21.8088H118.207C116.721 21.8088 116.372 21.8543 116.372 22.0211C116.372 22.461 116.979 23.6136 117.479 24.1899C117.949 24.6903 118.313 24.933 119.739 25.6155C119.875 25.6913 120.618 25.8126 121.362 25.9036C122.742 26.0704 125.138 25.9188 125.744 25.6155C125.881 25.5548 126.275 25.3576 126.609 25.206C127.473 24.7965 128.292 23.8714 128.596 22.9918C128.929 21.9908 128.838 20.5956 128.368 19.6249C127.807 18.4875 126.321 17.6686 124.107 17.2742C121.255 16.7738 121.21 16.7586 120.755 16.3188C120.209 15.7577 120.209 15.5605 120.755 14.9539C121.195 14.4686 121.225 14.4534 122.438 14.4534C123.652 14.4534 123.682 14.4686 124.122 14.9539C124.364 15.2269 124.562 15.5453 124.562 15.6667C124.562 15.8487 124.88 15.8942 126.457 15.8942C128.55 15.8942 128.489 15.9396 128.125 14.8629C127.458 12.952 125.744 11.9814 122.893 11.8752C122.014 11.8449 121.164 11.8449 120.998 11.8904V11.8904ZM100.827 12.2089C100.16 12.4363 99.2346 13.1946 98.9464 13.7406C98.6583 14.2866 98.4004 14.0591 98.3246 13.1491L98.2488 12.3302H94.4573L94.4118 18.6998C94.3967 22.2031 94.4118 25.2211 94.4573 25.4183C94.5332 25.7519 94.5787 25.7519 96.3986 25.7216C97.445 25.7064 98.2943 25.6155 98.355 25.5245C98.4156 25.4486 98.4763 23.841 98.4763 21.9605C98.4763 18.988 98.5066 18.4572 98.7644 17.7899C99.2952 16.4098 100.433 15.5908 101.858 15.5908C102.253 15.5908 102.419 15.515 102.465 15.3178C102.571 14.878 102.586 12.8307 102.495 12.3757C102.404 12.0117 102.328 11.951 101.919 11.9662C101.646 11.9814 101.161 12.0875 100.827 12.2089V12.2089ZM54.1162 12.4363C54.0707 12.5425 54.0556 15.5302 54.0707 19.079L54.1162 25.5245L55.9209 25.6003C57.0129 25.6458 57.8015 25.6155 57.9228 25.5245C58.0897 25.4031 58.1352 24.114 58.1352 18.9576C58.1503 15.4392 58.1048 12.4818 58.0593 12.406C57.9077 12.1785 54.192 12.2089 54.1162 12.4363V12.4363Z" fill="#88849C"/>
</svg>
