<svg width="144" height="29" viewBox="0 0 144 29" fill="none" xmlns="http://www.w3.org/2000/svg">
<path d="M9.10123 28.2291H3.68776V14.734H0V10.3403H3.68761V7.21382C3.68761 3.50897 5.31865 0.851868 10.7175 0.851868C11.8593 0.851868 13.652 1.08202 13.652 1.08202V5.16184H11.7691C9.85059 5.16184 9.10152 5.74541 9.10152 7.35878V10.3403H13.5802L13.1813 14.734H9.10137L9.10123 28.2291ZM21.5226 9.98916C21.4437 9.98916 21.3625 9.99203 21.2822 9.99404C16.2625 9.99404 13.9659 13.7699 13.9659 19.1298C13.9659 25.8818 16.945 28.5841 21.3214 28.5841C23.8254 28.5841 25.4705 27.5302 26.4704 25.5634V28.231H31.6194V10.3421H26.4704V13.0932C25.654 11.3232 23.9629 10.0101 21.5226 9.98916ZM22.8318 14.2162C24.9401 14.2162 26.2055 15.6868 26.2055 18.1882L26.2104 20.743C26.2104 22.4289 25.1652 24.4013 22.8318 24.4013C19.2445 24.4013 19.3403 20.5278 19.3403 19.2376C19.3403 14.8979 21.2516 14.2162 22.8318 14.2162ZM33.6988 19.2875C33.6988 17.1137 33.5948 10.0008 42.8618 10.0008C46.5818 10.0008 48.1351 11.1836 48.1351 11.1836L46.8866 15.0558C46.8866 15.0558 45.3353 14.2016 43.314 14.2016C40.7249 14.2016 39.0729 15.7025 39.0729 18.3432L39.0758 20.2367C39.0758 22.7741 40.6698 24.4679 43.3193 24.4679C45.1608 24.4679 46.858 23.6057 46.858 23.6057L48.1033 27.397C48.1033 27.397 46.6831 28.5873 42.8878 28.5873C34.0642 28.5873 33.699 22.2056 33.699 19.2875H33.6988ZM78.3255 9.99404C83.3453 9.99404 85.6781 13.7699 85.6781 19.1298C85.6781 25.8818 82.6989 28.5841 78.3224 28.5841C75.8185 28.5841 73.9675 27.5303 72.9676 25.5634V28.231L67.8834 28.229V1.39579L73.2815 0.924994V12.8508C74.0606 10.7644 76.621 9.99404 78.3256 9.99404H78.3255ZM76.8121 14.2162C74.7038 14.2162 73.2815 15.6868 73.2815 18.1882L73.2765 20.743C73.2733 22.4289 74.2614 24.4013 76.8121 24.4013C80.3994 24.4013 80.3036 20.5278 80.3036 19.2376C80.3036 14.8979 78.3924 14.2162 76.8121 14.2162ZM57.5012 10.0088C51.8078 10.0088 48.802 13.113 48.802 18.6295V19.6544C48.802 26.8143 53.023 28.6577 58.0554 28.6577C62.9467 28.6577 65.1608 27.2895 65.1608 27.2895L64.1507 23.6462C64.1507 23.6462 61.5463 24.7543 58.7026 24.7543C55.7546 24.7543 54.4867 24.0029 54.1617 21.1698H65.5924V18.2469C65.5924 12.263 62.2189 10.0087 57.5011 10.0087L57.5012 10.0088ZM57.6384 13.6571C59.6092 13.6571 60.8863 14.8656 60.8162 17.6684H54.1716C54.2869 14.7185 55.664 13.6572 57.6384 13.6572V13.6571ZM96.4417 9.98427C90.5949 9.98427 87.5169 13.2791 87.5169 19.1836C87.5169 27.2849 92.8228 28.589 96.4515 28.589C101.764 28.589 105.298 25.729 105.298 19.2572C105.298 12.5211 101.324 9.98427 96.4417 9.98427V9.98427ZM96.3682 14.2309C98.9391 14.2309 99.9578 16.155 99.9578 18.3452V20.2282C99.9578 22.8814 98.5323 24.4161 96.3584 24.4161C94.3252 24.4161 92.8963 22.9806 92.8963 20.2282V18.3452C92.8963 15.4098 94.5966 14.2309 96.3682 14.2309V14.2309ZM116.052 9.98427C110.205 9.98427 107.127 13.2791 107.127 19.1836C107.127 27.2849 112.433 28.589 116.062 28.589C121.374 28.589 124.908 25.729 124.908 19.2572C124.908 12.5211 120.934 9.98427 116.052 9.98427V9.98427ZM115.978 14.2309C118.549 14.2309 119.568 16.155 119.568 18.3452V20.2282C119.568 22.8814 118.142 24.4161 115.968 24.4161C113.935 24.4161 112.506 22.9806 112.506 20.2282V18.3452C112.506 15.4098 114.207 14.2309 115.978 14.2309V14.2309ZM126.948 28.2291V1.39579L132.362 0.924994V18.9104L137.733 10.3403H143.45L137.847 19.2164L143.666 28.2291H137.932L132.362 19.4779V28.2291H126.948Z" fill="#88849C"/>
</svg>
