<svg width="116" height="38" viewBox="0 0 116 38" fill="none" xmlns="http://www.w3.org/2000/svg">
<path d="M14.3576 0H15.3795C18.9271 0.0771225 22.4169 1.50389 24.9234 4.02965C23.9979 4.9744 23.0532 5.88059 22.147 6.82534C20.7395 5.55282 19.0428 4.56951 17.1919 4.22246C14.454 3.64404 11.5041 4.16461 9.20969 5.72635C6.70321 7.3652 5.00651 10.1416 4.64018 13.1108C4.23529 16.0415 5.06436 19.1264 6.97314 21.4015C8.8048 23.6188 11.6005 25.007 14.4926 25.1034C17.1919 25.2576 20.0068 24.4285 21.9735 22.539C23.5159 21.2087 24.2293 19.1842 24.4607 17.2176C21.2601 17.2176 18.0595 17.2369 14.8589 17.2176V13.2458H28.3361C29.0302 17.5068 28.0276 22.3077 24.7884 25.354C22.629 27.5134 19.6405 28.786 16.5942 29.0366C13.6442 29.3258 10.5979 28.7667 7.97573 27.3399C4.83299 25.6625 2.32651 22.8283 1.09255 19.4927C-0.0642895 16.4271 -0.0835701 12.9566 0.996145 9.87168C1.97946 7.05671 3.86896 4.56951 6.29832 2.83425C8.63127 1.11828 11.4655 0.173526 14.3576 0Z" fill="#88849C"/>
<path d="M91.6738 1.00256H95.7999V28.5353C94.431 28.5353 93.0428 28.5546 91.6738 28.516C91.6931 19.3577 91.6738 10.1801 91.6738 1.00256V1.00256Z" fill="#88849C"/>
<path d="M37.5134 10.5465C40.0584 10.0644 42.8155 10.6043 44.9171 12.1275C46.8259 13.4771 48.1563 15.598 48.5612 17.9117C49.0817 20.5917 48.4262 23.5223 46.6909 25.6432C44.8207 28.0147 41.7551 29.2872 38.7666 29.0944C36.0288 28.9402 33.368 27.5712 31.7485 25.3347C29.9168 22.8668 29.4733 19.4734 30.4759 16.5813C31.4785 13.4771 34.3128 11.1056 37.5134 10.5465V10.5465ZM38.0918 14.2098C37.0506 14.4797 36.0866 15.0774 35.3925 15.9258C33.5223 18.1623 33.638 21.8063 35.701 23.8887C36.8771 25.0841 38.6509 25.6432 40.2898 25.3154C41.8129 25.0455 43.1433 24.0236 43.876 22.674C45.1485 20.3796 44.7822 17.2176 42.8348 15.4245C41.5816 14.2676 39.7499 13.7856 38.0918 14.2098Z" fill="#88849C"/>
<path d="M57.9507 10.5464C60.862 9.98728 64.0433 10.7971 66.222 12.8408C69.7697 16.0221 70.1553 21.9798 67.1282 25.6431C65.2966 27.9568 62.3274 29.2293 59.3967 29.0944C56.601 29.0173 53.8439 27.629 52.1858 25.3347C50.3155 22.8089 49.9106 19.3384 50.9711 16.3884C52.0315 13.3807 54.8079 11.0863 57.9507 10.5464V10.5464ZM58.5291 14.2097C57.4879 14.4797 56.5239 15.0774 55.8298 15.9064C53.9789 18.1044 54.056 21.6906 56.0419 23.7922C57.218 25.0454 59.0497 25.6624 60.7463 25.3154C62.2502 25.0262 63.5999 24.0236 64.3325 22.6739C65.5858 20.3603 65.2195 17.1982 63.2528 15.4051C61.9996 14.2483 60.1679 13.7856 58.5291 14.2097Z" fill="#88849C"/>
<path d="M75.2857 11.6647C77.503 10.2765 80.453 9.89092 82.8438 11.0863C83.5957 11.4141 84.2127 11.9732 84.8104 12.5324C84.8297 12.0118 84.8104 11.4719 84.8297 10.9321C86.1215 10.9514 87.4133 10.9321 88.7243 10.9514V27.9569C88.7051 30.5212 88.0495 33.2398 86.1986 35.11C84.1741 37.173 81.0699 37.8093 78.2742 37.3851C75.2857 36.9416 72.6829 34.7629 71.526 32.0058C72.6829 31.4467 73.8975 31.0032 75.0929 30.4826C75.7678 32.0636 77.1367 33.4133 78.8527 33.7218C80.5686 34.0303 82.5545 33.6061 83.6728 32.1793C84.8682 30.714 84.8682 28.7088 84.8104 26.9157C83.9235 27.7833 82.9016 28.5546 81.6676 28.8438C78.9876 29.5957 76.0377 28.6703 73.9747 26.8579C71.8924 25.0455 70.6584 22.2498 70.7741 19.4734C70.8319 16.3307 72.6057 13.3036 75.2857 11.6647V11.6647ZM79.2768 14.1327C78.1007 14.3255 77.0017 14.981 76.2498 15.8872C74.4374 18.0466 74.4374 21.4979 76.2691 23.6187C77.3102 24.872 78.9876 25.5661 80.6072 25.3925C82.1304 25.2383 83.5379 24.2743 84.2898 22.9439C85.5623 20.6881 85.3502 17.6225 83.6343 15.6558C82.5738 14.4412 80.8771 13.8435 79.2768 14.1327V14.1327Z" fill="#88849C"/>
<path d="M100.753 12.6481C103.067 10.4886 106.634 9.75597 109.603 10.8935C112.418 11.954 114.211 14.634 115.117 17.3911C110.934 19.1264 106.769 20.8423 102.585 22.5776C103.163 23.6766 104.05 24.6792 105.246 25.0841C106.923 25.6818 108.928 25.4697 110.336 24.3514C110.895 23.9272 111.338 23.3681 111.763 22.8282C112.823 23.5416 113.884 24.2357 114.944 24.9491C113.44 27.2049 110.914 28.7859 108.196 29.0366C105.188 29.4029 101.987 28.2461 100.04 25.8939C96.8394 22.192 97.1479 15.9836 100.753 12.6481V12.6481ZM102.816 16.215C102.161 17.1597 101.891 18.3166 101.91 19.4541C104.706 18.2973 107.502 17.1405 110.297 15.9643C109.835 14.8846 108.716 14.2291 107.579 14.0556C105.747 13.7278 103.838 14.7111 102.816 16.215V16.215Z" fill="#88849C"/>
</svg>
