<?xml version="1.0" encoding="UTF-8"?>
<!-- Generated by Pixelmator Pro 2.4.2 -->
<svg width="80" height="80" viewBox="0 0 80 80" xmlns="http://www.w3.org/2000/svg" xmlns:xlink="http://www.w3.org/1999/xlink">
    <linearGradient id="linearGradient1" x1="44.74545" y1="49.842627" x2="-6.542176" y2="-6.787879" gradientUnits="userSpaceOnUse">
        <stop offset="1e-05" stop-color="#001e00" stop-opacity="1"/>
        <stop offset="1" stop-color="#00b900" stop-opacity="1"/>
    </linearGradient>
    <path id="Path-copy" fill="url(#linearGradient1)" stroke="none" d="M 24 0 L 56 0 C 69.254837 0 80 10.745163 80 24 L 80 56 C 80 69.254837 69.254837 80 56 80 L 24 80 C 10.745166 80 0 69.254837 0 56 L 0 24 C 0 10.745163 10.745166 0 24 0 Z"/>
    <path id="Path" fill="#beecb0" stroke="none" d="M 40 20 C 36.044399 20 32.177601 21.173 28.888599 23.370598 C 25.5996 25.568199 23.0362 28.691799 21.5224 32.346298 C 20.008699 36.0009 19.6126 40.022202 20.3843 43.901798 C 21.156 47.781399 23.060801 51.3451 25.857901 54.142101 C 28.6549 56.939201 32.218601 58.844002 36.098202 59.6157 C 39.977798 60.387402 43.999199 59.991299 47.653702 58.4776 C 51.308201 56.963799 54.431801 54.400398 56.629398 51.111401 C 58.827 47.822399 60 43.955601 60 40 C 59.994301 34.697399 57.8853 29.613701 54.135799 25.864201 C 50.386299 22.1147 45.302601 20.005699 40 20 L 40 20 Z M 49.166698 44.5383 C 49.166302 44.687901 49.125702 44.834702 49.049099 44.9631 C 48.9725 45.091599 48.862701 45.197102 48.7313 45.268501 C 48.5998 45.34 48.451599 45.374699 48.302101 45.369099 C 48.152599 45.363499 48.007401 45.317699 47.881699 45.236698 L 44.810001 43.2467 C 44.747101 43.205898 44.674301 43.1828 44.5994 43.179901 C 44.524399 43.176998 44.4501 43.194401 44.384201 43.230301 C 44.318298 43.266102 44.263401 43.319099 44.225101 43.383598 C 44.186798 43.448002 44.166599 43.521702 44.166698 43.596699 L 44.166698 45.833302 C 44.166698 46.054298 44.078899 46.2663 43.9226 46.4226 C 43.7663 46.578899 43.554401 46.666698 43.333302 46.666698 L 31.6667 46.666698 C 31.4457 46.666698 31.2337 46.578899 31.0774 46.4226 C 30.921101 46.2663 30.8333 46.054298 30.8333 45.833302 L 30.8333 34.166698 C 30.8333 33.945702 30.921101 33.7337 31.0774 33.5774 C 31.2337 33.421101 31.4457 33.333302 31.6667 33.333302 L 43.333302 33.333302 C 43.554401 33.333302 43.7663 33.421101 43.9226 33.5774 C 44.078899 33.7337 44.166698 33.945702 44.166698 34.166698 L 44.166698 36.403301 C 44.167099 36.4781 44.187698 36.551399 44.226101 36.615501 C 44.2645 36.679699 44.319401 36.732399 44.385101 36.768101 C 44.450802 36.803902 44.524799 36.821301 44.599602 36.818699 C 44.674301 36.816101 44.747002 36.793598 44.810001 36.7533 L 47.881699 34.763302 C 48.007301 34.6819 48.1525 34.635899 48.302101 34.630001 C 48.451698 34.624199 48.600101 34.658699 48.731701 34.73 C 48.863201 34.801601 48.973099 34.907299 49.049599 35.036098 C 49.126202 35.164902 49.166599 35.311901 49.166698 35.4617 L 49.166698 44.5383 Z"/>
</svg>
